<svg width="1303" height="851" viewBox="0 0 1303 851" fill="none" xmlns="http://www.w3.org/2000/svg">
<g clip-path="url(#clip0_3087_37527)">
<path d="M58.5 851C26.3 851 0 825.1 0 793.3V57.6C0 25.9 26.3 0 58.5 0H1244.4C1276.7 0 1302.9 25.9 1302.9 57.6V793.3C1302.9 825.1 1276.6 850.9 1244.4 850.9H58.5V851Z" fill="url(#paint0_linear_3087_37527)"/>
<path d="M58.4998 843.8C30.1998 843.8 7.2998 821.2 7.2998 793.3V57.6C7.2998 29.8 30.2998 7.09998 58.4998 7.09998H1244.4C1272.7 7.09998 1295.6 29.7 1295.6 57.6V793.3C1295.6 821.1 1272.6 843.8 1244.4 843.8H58.4998Z" fill="#D4D5D6"/>
<path d="M950.4 843.8C837.2 461.6 687.9 225.3 475.5 26.4L454 7.20001H58.4998C30.2998 7.20001 7.2998 29.8 7.2998 57.6V793.3C7.2998 821.1 30.2998 843.8 58.4998 843.8H950.4Z" fill="#3397C9"/>
<path d="M816.2 843.8C757.4 507 641.3 224.1 443.7 26.4L422.1 7.20001H58.4998C30.2998 7.20001 7.2998 29.8 7.2998 57.6V793.3C7.2998 821.1 30.2998 843.8 58.4998 843.8H816.2Z" fill="#0071CE"/>
<path d="M111.3 349.3C111.3 349.3 99.1996 390.1 90.8996 423L87.4996 435.8C85.8996 441.8 89.9996 442 89.9996 442H112.8L107.2 462.5H81.8996H82.0996C82.0996 462.5 69.9996 463.1 64.3996 457.3C58.7996 451.5 60.1996 444.5 60.5996 441C60.8996 438.3 71.7997 398 71.7997 398L85.6996 349.3H111.3Z" fill="white"/>
<path d="M190 409.4C185.3 416.5 181.9 430.3 187 439.3C192.3 448.8 210.7 448.9 219.4 442.3C228.9 435.2 232.1 414.2 235.6 401.4C220.7 388.5 198.4 396.8 190 409.4ZM272.8 349.2L254.3 423.3C242.9 461.5 203.7 462.3 203.7 462.3C181.2 464 161.7 455 159.6 435.3C155.2 393.8 200.5 368.1 240.1 383.9C242.5 372 246.9 361 249.3 349.1H272.8V349.2Z" fill="white"/>
<path d="M310.599 413.4C320.699 412.7 338.699 409.4 335.399 399.9C333.399 394.1 321.699 393.2 314.599 394.4C303.599 396.3 295.599 404.4 291.299 411.9C296.599 413.3 303.499 413.9 310.599 413.4ZM286.799 426.4C282.599 453 323.299 449 336.399 438.9C334.899 445 334.699 452.2 333.399 458.4C301.499 467.9 265.199 461.1 261.999 432.9C258.199 399 286.599 381.2 316.199 379C333.099 377.8 352.499 380.7 357.699 392.5C360.899 399.6 358.199 409.1 354.199 413.9C342.199 428.2 310.099 431.7 286.799 426.4Z" fill="white"/>
<path d="M435.7 380.5C435.7 380.5 429.3 398.4 429.1 399C422.6 397.1 419.8 393.6 410.9 394.5C387.9 396.8 382.5 425.5 378.1 448.7L375.9 462.6H352C358.5 435.9 365.1 407 371.8 380.6C379.4 380.6 387.7 380.6 395.3 380.6L394 387.1C403.8 380.6 420.3 376.7 435.7 380.5Z" fill="white"/>
<path d="M162.5 380.9C156.4 407.8 149.3 435.4 143.4 462.5H119.1C124.1 441 129.2 419.6 134.3 398.1H121.6L126 380.9H162.5Z" fill="white"/>
<path d="M167.1 359.9C167.1 368.3 160.2 371.7 151.8 371.7C143.3 371.7 136.5 366.4 136.5 359.9C136.5 353.4 143.4 348 151.8 348C160.2 348 167.1 353.3 167.1 359.9Z" fill="white"/>
<path d="M549.899 374.4C554.499 374.4 558.299 372 558.799 369L563.399 318.2C563.399 313.2 557.399 309.1 549.899 309.1C542.399 309.1 536.399 313.2 536.399 318.2L540.999 369C541.499 372 545.299 374.4 549.899 374.4Z" fill="#FFB71B"/>
<path d="M522 390.3C524.3 386.4 524.1 381.9 521.7 380L479.3 350.7C474.9 348.2 468.3 351.2 464.5 357.6C460.7 364 461.4 371.1 465.8 373.6L512.7 395.1C515.8 396.2 519.7 394.2 522 390.3Z" fill="#FFB71B"/>
<path d="M577.799 390.3C580.099 394.2 584.099 396.3 586.999 395.2L633.899 373.7C638.299 371.2 638.899 364 635.199 357.7C631.399 351.3 624.799 348.3 620.399 350.8L578.099 380C575.699 381.9 575.499 386.3 577.799 390.3Z" fill="#FFB71B"/>
<path d="M549.899 437.8C554.499 437.8 558.299 440.1 558.799 443.2L563.399 494C563.399 499 557.399 503.2 549.899 503.2C542.399 503.2 536.399 499.1 536.399 494L540.999 443.2C541.499 440.2 545.299 437.8 549.899 437.8Z" fill="#FFB71B"/>
<path d="M577.8 422C580.1 418.1 584.1 416 587 417.1L633.9 438.6C638.3 441.1 638.9 448.3 635.2 454.7C631.4 461.1 624.8 464.1 620.4 461.6L578 432.3C575.7 430.3 575.5 425.9 577.8 422Z" fill="#FFB71B"/>
<path d="M522 422C524.3 425.9 524.1 430.3 521.7 432.3L479.3 461.5C474.9 464 468.3 461 464.5 454.6C460.7 448.2 461.4 441 465.8 438.5L512.7 417C515.8 416 519.7 418 522 422Z" fill="#FFB71B"/>
<path d="M649.1 455.2C650.3 455.2 651.5 455.5 652.7 456.1C653.9 456.7 654.8 457.6 655.5 458.8C656.1 460 656.5 461.2 656.5 462.4C656.5 463.6 656.2 464.8 655.5 466C654.8 467.2 654 468 652.8 468.7C651.6 469.3 650.4 469.6 649.2 469.6C647.9 469.6 646.7 469.3 645.5 468.7C644.3 468.1 643.4 467.2 642.8 466C642.1 464.8 641.8 463.6 641.8 462.4C641.8 461.1 642.1 459.9 642.8 458.8C643.5 457.6 644.4 456.7 645.6 456.1C646.6 455.5 647.8 455.2 649.1 455.2ZM649.1 456.4C648.1 456.4 647.1 456.6 646.1 457.2C645.1 457.7 644.4 458.5 643.8 459.4C643.3 460.4 643 461.4 643 462.4C643 463.4 643.3 464.5 643.8 465.4C644.4 466.4 645.1 467.1 646.1 467.6C647.1 468.1 648.1 468.4 649.2 468.4C650.3 468.4 651.3 468.1 652.2 467.6C653.2 467.1 653.9 466.3 654.5 465.4C655 464.5 655.3 463.5 655.3 462.4C655.3 461.4 655 460.3 654.5 459.4C653.9 458.4 653.2 457.7 652.2 457.2C651.1 456.7 650.1 456.4 649.1 456.4ZM645.9 466.5V458.7H648.6C649.5 458.7 650.2 458.8 650.6 458.9C651 459.1 651.3 459.3 651.6 459.7C651.8 460 652 460.4 652 460.8C652 461.4 651.8 461.9 651.4 462.3C651 462.7 650.4 463 649.8 463C650.1 463.1 650.3 463.2 650.5 463.4C650.8 463.7 651.2 464.2 651.7 465L652.7 466.5H651.1L650.4 465.3C649.9 464.3 649.4 463.7 649.1 463.5C648.9 463.3 648.5 463.2 648.1 463.2H647.3V466.5H645.9ZM647.1 462.1H648.6C649.3 462.1 649.8 462 650.1 461.8C650.4 461.6 650.5 461.3 650.5 460.9C650.5 460.7 650.4 460.5 650.3 460.3C650.2 460.1 650 460 649.8 459.9C649.6 459.8 649.1 459.8 648.5 459.8H647V462.1H647.1Z" fill="#FFB71B"/>
<path d="M825.2 483.9C825.6 493.6 832.9 501.7 842.6 503.3C843.9 503.5 845.3 503.6 846.6 503.5C852.1 503.3 857.2 501 861 497C864.8 493 866.7 487.8 866.5 482.4C866.5 467.7 875 457.7 886.8 446.5C899.1 437.6 916.5 426.7 941.2 413.2C971.8 397.2 991.7 378.2 996.1 362.8L996.2 362.3C996.8 360.3 997 358.3 996.8 356.4C996.4 346.7 989.1 338.6 979.4 337C978.1 336.8 976.7 336.7 975.4 336.8C969.9 337 964.8 339.3 961 343.3C957.2 347.3 955.3 352.5 955.5 357.9C955.5 373.4 946 383.6 933.3 395.7C906 416.7 880.9 427.1 880.9 427.1C850.3 443.1 830.4 462.1 826 477.5L825.9 478C825.3 480 825.1 482 825.2 483.9Z" fill="#EA3942"/>
<path d="M948.5 422C948.5 422 970.7 427.8 963.8 458.6C963.4 460.2 963.3 461.9 963.4 463.7C964.2 472.8 972.3 479.5 981.5 478.8C990.7 478 997.6 470.1 996.8 461C995.3 439.6 954.3 413.4 948.8 414.1C948.8 414.1 945.6 414.2 945.5 418.3C945.4 421.4 948.5 422 948.5 422Z" fill="#0F9247"/>
<path d="M941.6 432.1C941.6 432.1 956.1 435.9 951.6 456C951.6 456 946.8 475 916 480C881.1 485.7 881.7 473.1 881.7 473.1C881.4 466.8 879 459.3 913.6 438.6C913.7 438.6 931.2 428.1 941.6 432.1Z" fill="#F6D208"/>
<path d="M857.6 339C859.6 366.4 899.4 399.2 923.2 411.9C929.7 415.4 937.7 414.6 940 413.7C950.9 408.8 939.2 404.6 939.2 404.6C939.2 404.6 901.6 394.8 913.4 342.8C914 340.1 914.3 337.2 914 334.2C912.7 318.9 899 307.5 883.4 308.8C867.9 310.1 856.3 323.6 857.6 339Z" fill="#2C72B3"/>
<path d="M1235.8 489H1262.2V376.6H1235.8V489ZM1248.9 364.7C1256.9 364.7 1263.4 358.3 1263.4 350.4C1263.4 342.5 1256.9 336.1 1248.9 336.1C1240.9 336.1 1234.4 342.5 1234.4 350.4C1234.4 358.3 1240.9 364.7 1248.9 364.7ZM1115.1 445.2C1115.1 432.2 1110.4 419.6 1099.6 412.3C1107.1 404.7 1110.6 395.1 1110.6 385.2C1110.6 362.5 1098.4 343.7 1062 343.7H1010.5V489H1063C1101.7 489 1115.1 469.7 1115.1 445.2ZM1037 369.5H1062.6C1079.1 369.5 1081.9 377.3 1081.9 385.2C1081.9 393 1078.6 401.1 1064.2 401.1H1037V369.5ZM1037 426.8H1064.2C1080.5 426.8 1086.6 432.6 1086.6 445.2C1086.6 454.1 1082.7 463.2 1063.8 463.2H1037V426.8ZM1181.6 465.7C1164.7 465.7 1151 451.4 1151 433.9V433.5C1151 415.9 1164.3 402.1 1181.3 402.1C1190.2 402.1 1197.4 405.4 1204.9 412.9L1223 394C1214.1 385.4 1201.5 376.5 1181.4 376.5C1149.9 376.5 1124.3 402.1 1124.3 433.6V434C1124.3 465.5 1149.8 491.1 1181.2 491.1C1197 491.1 1210.5 485.6 1222.1 474.2L1203.4 456.3C1196.5 462.8 1189.6 465.7 1181.6 465.7Z" fill="#211E1E"/>
<path d="M134 186.1C134 208.3 134 230.5 134 252.6C134 253.6 134.3 253.8 135.2 253.8C145.9 253.8 156.7 253.8 167.4 253.8C170.9 253.8 174.3 253.8 177.8 253.8C178.4 253.8 178.8 253.6 178.7 252.9C178.7 252.7 178.7 252.5 178.7 252.3C178.7 219.2 178.7 186.2 178.7 153.1C178.7 151.6 178.7 151.6 180.2 151.6C185.9 151.6 191.7 151.6 197.4 151.6C204.2 151.6 211 151.6 217.9 151.6C221.8 151.6 225.6 151.6 229.5 151.6C230.1 151.6 230.5 151.6 230.5 150.8C230.4 147.7 230.6 144.7 230.1 141.6C229.2 135.7 226.7 130.6 222.5 126.4C217.1 121 210.5 118.3 202.9 118.3C180.3 118.3 157.8 118.3 135.2 118.3C134.2 118.3 134 118.6 134 119.6C134 141.8 134 164 134 186.1ZM104.5 220.3C99.5002 220.3 94.6002 220.3 89.6002 220.3C87.1002 220.3 84.6002 220.3 82.2002 220.3C81.7002 220.3 81.3002 220.3 81.3002 221C81.4002 224.1 81.1002 227.2 81.6002 230.3C82.6002 236.9 85.6002 242.6 90.6002 247C95.1002 250.9 100.3 253.3 106.2 253.7C113 254.1 119.9 253.8 126.8 253.9C127.6 253.9 127.8 253.7 127.8 252.9C127.8 242.4 127.8 232 127.8 221.5C127.8 220.6 127.6 220.4 126.7 220.4C119.2 220.4 111.8 220.3 104.5 220.3ZM127.7 135.2C127.7 130 127.7 124.8 127.7 119.6C127.7 118.8 127.5 118.5 126.6 118.5C120.7 118.5 114.8 118.5 108.9 118.5C106.1 118.5 103.4 118.9 100.8 119.7C93.3002 122 87.8002 126.7 84.2002 133.6C83.0002 135.9 82.1002 138.3 81.7002 140.9C81.2002 144 81.3002 147.2 81.3002 150.4C81.3002 151.7 81.3002 151.7 82.6002 151.7C88.4002 151.7 94.2002 151.7 100.1 151.7C108.9 151.7 117.8 151.7 126.6 151.7C127.3 151.7 127.8 151.7 127.7 150.8C127.7 145.6 127.7 140.4 127.7 135.2ZM207.8 220.3C201.1 220.3 194.4 220.3 187.8 220.3C185.1 220.3 185.1 220.3 185.1 222.9C185.1 232.8 185.1 242.7 185.1 252.6C185.1 253.3 185.2 253.8 186.1 253.8C191.6 253.8 197.1 253.8 202.6 253.8C205.2 253.8 207.8 253.6 210.3 252.8C215.6 251.3 220 248.6 223.7 244.5C226.9 240.8 229 236.6 230 231.8C230.7 228.2 230.5 224.5 230.6 220.9C230.6 220.2 230.2 220.2 229.7 220.2C222.3 220.3 215.1 220.3 207.8 220.3ZM104.4 183C111.8 183 119.1 183 126.5 183C127.4 183 127.7 182.8 127.7 181.8C127.6 179.4 127.7 176.9 127.7 174.5C127.7 169.4 127.7 164.3 127.7 159.2C127.7 158.5 127.7 158 126.7 158.1C121.7 158.1 116.7 158.1 111.7 158.1C101.9 158.1 92.1002 158.1 82.3002 158.1C81.4002 158.1 81.2002 158.4 81.2002 159.2C81.2002 166.8 81.2002 174.4 81.2002 182C81.2002 182.8 81.4002 183 82.2002 183C89.6002 183 97.0002 183 104.4 183ZM104.4 189.3C97.0002 189.3 89.7002 189.3 82.3002 189.3C81.5002 189.3 81.2002 189.5 81.2002 190.4C81.2002 197.7 81.2002 204.9 81.2002 212.2C81.2002 214 81.2002 214 83.0002 214C97.5002 214 111.9 214 126.4 214C127.4 214 127.7 213.8 127.7 212.7C127.7 205.3 127.7 198 127.7 190.6C127.7 189.5 127.4 189.4 126.4 189.4C119.1 189.4 111.8 189.3 104.4 189.3ZM208.2 183C215.3 183 222.3 183 229.4 183C230.2 183 230.5 182.9 230.5 182C230.5 174.4 230.5 166.7 230.5 159.1C230.5 158.4 230.3 158.1 229.5 158.1C216.3 158.1 203.1 158.1 189.9 158.1C188.8 158.1 187.7 158.1 186.6 158.1C185.2 158 185.2 158 185.1 159.3C185.1 166.9 185.1 174.5 185.1 182C185.1 182.9 185.3 183.2 186.3 183.1C186.9 183 187.5 183 188.2 183C194.8 183 201.5 183 208.2 183ZM207.8 189.3C200.7 189.3 193.5 189.3 186.4 189.3C185.1 189.3 185.1 189.3 185.1 190.6C185.1 197.9 185.1 205.3 185.1 212.6C185.1 213.7 185.5 213.9 186.5 213.9C200.8 213.9 215.2 213.9 229.5 213.9C230.4 213.9 230.6 213.6 230.6 212.8C230.6 205.3 230.6 197.9 230.6 190.4C230.6 189.4 230.3 189.3 229.4 189.3C222.1 189.4 214.9 189.3 207.8 189.3Z" fill="#46A8CE"/>
<path d="M134 186.1C134 164 134 141.8 134 119.7C134 118.7 134.2 118.4 135.2 118.4C157.8 118.4 180.3 118.4 202.9 118.4C210.5 118.4 217.1 121.1 222.5 126.5C226.7 130.7 229.3 135.8 230.1 141.7C230.5 144.8 230.4 147.8 230.5 150.9C230.5 151.7 230.1 151.7 229.5 151.7C225.6 151.7 221.8 151.7 217.9 151.7C211.1 151.7 204.3 151.7 197.4 151.7C191.7 151.7 185.9 151.7 180.2 151.7C178.7 151.7 178.7 151.7 178.7 153.2C178.7 186.3 178.7 219.3 178.7 252.4C178.7 252.6 178.7 252.8 178.7 253C178.8 253.7 178.4 253.9 177.8 253.9C174.3 253.9 170.9 253.9 167.4 253.9C156.7 253.9 145.9 253.9 135.2 253.9C134.3 253.9 134 253.7 134 252.7C134 230.5 134 208.3 134 186.1Z" fill="#46A8CE"/>
<path d="M104.5 220.3C111.9 220.3 119.2 220.3 126.6 220.3C127.5 220.3 127.7 220.5 127.7 221.4C127.7 231.9 127.7 242.3 127.7 252.8C127.7 253.6 127.5 253.8 126.7 253.8C119.8 253.7 113 254.1 106.1 253.6C100.2 253.2 94.9002 250.8 90.5002 246.9C85.5002 242.4 82.5002 236.8 81.5002 230.2C81.0002 227.1 81.3002 224 81.2002 220.9C81.2002 220.2 81.6002 220.2 82.1002 220.2C84.6002 220.2 87.1002 220.2 89.5002 220.2C94.6002 220.3 99.5002 220.3 104.5 220.3Z" fill="#46A8CE"/>
<path d="M127.7 135.2C127.7 140.4 127.7 145.6 127.7 150.8C127.7 151.8 127.2 151.7 126.6 151.7C117.8 151.7 108.9 151.7 100.1 151.7C94.3002 151.7 88.5002 151.7 82.6002 151.7C81.3002 151.7 81.3002 151.7 81.3002 150.4C81.3002 147.2 81.2002 144.1 81.7002 140.9C82.1002 138.3 83.0002 135.9 84.2002 133.6C87.8002 126.7 93.3002 122 100.8 119.7C103.5 118.9 106.2 118.5 108.9 118.5C114.8 118.5 120.7 118.5 126.6 118.5C127.5 118.5 127.7 118.8 127.7 119.6C127.7 124.8 127.7 130 127.7 135.2Z" fill="#46A8CE"/>
<path d="M207.8 220.3C215.1 220.3 222.3 220.3 229.6 220.3C230.1 220.3 230.5 220.3 230.5 221C230.5 224.6 230.7 228.3 229.9 231.9C228.9 236.7 226.8 240.9 223.6 244.6C220 248.7 215.5 251.4 210.2 252.9C207.7 253.6 205.1 253.8 202.5 253.9C197 253.9 191.5 253.9 186 253.9C185.1 253.9 185 253.5 185 252.7C185 242.8 185 232.9 185 223C185 220.4 185 220.4 187.7 220.4C194.4 220.3 201.1 220.3 207.8 220.3Z" fill="#46A8CE"/>
<path d="M104.4 183C97.0002 183 89.6002 183 82.2002 183C81.4002 183 81.2002 182.7 81.2002 182C81.2002 174.4 81.2002 166.8 81.2002 159.2C81.2002 158.3 81.4002 158.1 82.3002 158.1C92.1002 158.1 101.9 158.1 111.7 158.1C116.7 158.1 121.7 158.2 126.7 158.1C127.6 158.1 127.7 158.6 127.7 159.2C127.7 164.3 127.7 169.4 127.7 174.5C127.7 176.9 127.7 179.4 127.7 181.8C127.7 182.7 127.4 183 126.5 183C119.2 182.9 111.8 183 104.4 183Z" fill="#46A8CE"/>
<path d="M104.4 189.3C111.7 189.3 119.1 189.3 126.4 189.3C127.4 189.3 127.7 189.5 127.7 190.5C127.7 197.9 127.6 205.2 127.7 212.6C127.7 213.7 127.4 213.9 126.4 213.9C111.9 213.9 97.5002 213.9 83.0002 213.9C81.2002 213.9 81.2002 213.9 81.2002 212.1C81.2002 204.8 81.2002 197.6 81.2002 190.3C81.2002 189.4 81.5002 189.2 82.3002 189.2C89.7002 189.4 97.1002 189.3 104.4 189.3Z" fill="#46A8CE"/>
<path d="M208.2 183C201.5 183 194.8 183 188.1 183C187.5 183 186.9 183 186.2 183.1C185.3 183.3 185 182.9 185 182C185 174.4 185 166.8 185 159.3C185 158 185.1 158 186.5 158.1C187.6 158.2 188.7 158.1 189.8 158.1C203 158.1 216.2 158.1 229.4 158.1C230.2 158.1 230.4 158.4 230.4 159.1C230.4 166.7 230.4 174.4 230.4 182C230.4 182.9 230.1 183 229.3 183C222.3 183 215.2 183 208.2 183Z" fill="#46A8CE"/>
<path d="M207.8 189.3C215 189.3 222.1 189.3 229.3 189.3C230.2 189.3 230.5 189.4 230.5 190.4C230.5 197.9 230.5 205.3 230.5 212.8C230.5 213.6 230.3 213.9 229.4 213.9C215.1 213.9 200.7 213.9 186.4 213.9C185.4 213.9 185 213.7 185 212.6C185.1 205.3 185 197.9 185 190.6C185 189.3 185 189.3 186.3 189.3C193.5 189.4 200.6 189.3 207.8 189.3Z" fill="#46A8CE"/>
<path d="M256.9 161.6C258.1 161.6 259.3 162 260.3 162.8C267.6 169 271.7 178.1 271.7 187.7C271.7 197.9 267 207.4 258.9 213.6C256.6 215.4 253.4 214.9 251.6 212.7C249.8 210.4 250.3 207.2 252.5 205.4C258 201.1 261.2 194.7 261.2 187.7C261.2 181.2 258.4 175 253.4 170.7C251.2 168.8 251 165.6 252.8 163.4C254 162.2 255.4 161.6 256.9 161.6Z" fill="#46A8CE"/>
<path d="M276.1 150C277.5 150 278.8 150.5 279.8 151.6C289.3 161.3 294.5 174.2 294.5 187.7C294.5 201.2 289.3 214 280 223.7C278 225.8 274.7 225.8 272.7 223.8C270.6 221.8 270.6 218.5 272.6 216.5C280.1 208.7 284.2 198.5 284.2 187.7C284.2 176.8 280 166.6 272.5 158.8C270.5 156.7 270.5 153.5 272.6 151.5C273.5 150.4 274.8 150 276.1 150Z" fill="#46A8CE"/>
<path d="M293.601 136.8C295.001 136.8 296.401 137.4 297.501 138.5C309.601 152 316.301 169.5 316.301 187.6C316.301 205 310.101 221.8 298.901 235.1C297.101 237.3 293.801 237.6 291.601 235.7C289.401 233.8 289.101 230.6 291.001 228.4C300.601 217 305.901 202.5 305.901 187.6C305.901 172 300.201 157 289.801 145.4C287.901 143.3 288.101 140 290.201 138.1C291.201 137.3 292.401 136.8 293.601 136.8Z" fill="#46A8CE"/>
</g>
<defs>
<linearGradient id="paint0_linear_3087_37527" x1="252.21" y1="-144.719" x2="1066.66" y2="1018.43" gradientUnits="userSpaceOnUse">
<stop stop-color="#C2D9E9"/>
<stop offset="0.2757" stop-color="#C2DEF0"/>
<stop offset="0.4598" stop-color="#C2E5F7"/>
<stop offset="0.4625" stop-color="#C0E3F6"/>
<stop offset="0.5151" stop-color="#ACC7D8"/>
<stop offset="0.5727" stop-color="#9CAFC0"/>
<stop offset="0.6378" stop-color="#8F9DAD"/>
<stop offset="0.7139" stop-color="#86909F"/>
<stop offset="0.8109" stop-color="#818998"/>
<stop offset="1" stop-color="#808795"/>
</linearGradient>
<clipPath id="clip0_3087_37527">
<rect width="1303" height="851" fill="white"/>
</clipPath>
</defs>
</svg>
