<svg width="102" height="42" viewBox="0 0 102 42" fill="none" xmlns="http://www.w3.org/2000/svg">
<path fill-rule="evenodd" clip-rule="evenodd" d="M15.9249 19.1201C16.4151 17.014 16.9041 14.9134 17.3582 12.8326L11.1712 12.8349L10.4236 15.8467L12.5776 15.8557C12.3038 17.0533 12.0292 18.2504 11.7546 19.4476L11.7546 19.4477L11.7546 19.4479L11.7546 19.4479L11.7545 19.4481L11.7545 19.4481L11.7545 19.4482C11.1684 22.0038 10.5822 24.56 10.0021 27.1224H14.1238C14.6805 24.4657 15.3037 21.7885 15.9249 19.1201ZM15.5298 11.2243C16.9628 11.2243 18.1275 10.6174 18.1275 9.14869C18.1275 8.00261 16.9651 7.07537 15.5298 7.07537C14.0945 7.07537 12.9299 8.00261 12.9299 9.14869C12.9299 10.2948 14.0945 11.2243 15.5298 11.2243ZM63.6789 12.7615C63.6789 12.7615 62.5942 15.8884 62.5631 15.9922C62.2098 15.8887 61.9213 15.7559 61.6433 15.628C61.0486 15.3542 60.5018 15.1025 59.4707 15.2071C55.572 15.5989 54.6561 20.6197 53.9182 24.6652L53.9138 24.6893L53.5322 27.1213H49.4949C49.8577 25.572 50.2242 23.9827 50.5935 22.3813L50.5936 22.3806C51.3395 19.1459 52.0967 15.8624 52.8579 12.7615C53.5026 12.7615 54.1795 12.7621 54.8561 12.7627H54.857H54.858H54.859H54.86H54.8611C55.5355 12.7632 56.2094 12.7638 56.8509 12.7638L56.6379 13.8963C58.2839 12.7886 61.068 12.1073 63.6789 12.7615ZM46.8453 22.9812C44.6158 24.7567 37.7234 25.4516 38.4289 20.7973C42.3842 21.72 47.8324 21.1154 49.8511 18.6135C50.5388 17.7607 50.9891 16.1047 50.4523 14.8571C49.5672 12.8019 46.2818 12.2852 43.4113 12.4996C38.4 12.8741 33.5685 15.9942 34.2207 21.9321C34.7619 26.8638 40.9134 28.0483 46.3306 26.3878C46.4384 25.873 46.5049 25.3162 46.5714 24.7595L46.5714 24.7594L46.5714 24.7593C46.6445 24.1477 46.7175 23.5363 46.8453 22.9812ZM42.4663 18.5256C44.1722 18.4082 47.2357 17.8194 46.6745 16.168C46.3306 15.155 44.3541 14.9903 43.154 15.2069C41.2883 15.5453 39.9329 16.9531 39.2031 18.2639C40.0882 18.5053 41.2662 18.609 42.4663 18.5256ZM32.9202 20.2572L36.0636 7.2804H32.095C31.889 8.33566 31.5972 9.34669 31.3056 10.357L31.3056 10.357L31.3056 10.357C31.0193 11.3489 30.7332 12.3401 30.5288 13.3717C23.8072 10.5945 16.134 15.0999 16.8727 22.3689C17.2232 25.8161 20.5307 27.3841 24.3441 27.0863C24.3441 27.0863 30.9947 26.9487 32.9202 20.2572ZM22.0259 17.8275C21.2273 19.0729 20.6483 21.4846 21.509 23.0684C22.4097 24.7243 25.522 24.7446 27.0061 23.5918C28.2968 22.5909 28.8984 20.0209 29.3981 17.8862C29.5202 17.3647 29.6361 16.8691 29.7546 16.4288C27.2146 14.1637 23.4457 15.6098 22.0259 17.8275ZM5.20668 20.1993C6.6109 14.4419 8.66952 7.2947 8.66952 7.2947H4.31713L1.96346 15.8158C1.96346 15.8158 0.128894 22.8592 0.0756541 23.342C0.0710759 23.3814 0.0658518 23.4234 0.0603364 23.4678C-0.0196656 24.1108 -0.160942 25.2465 0.718974 26.2004C1.66177 27.2224 3.72039 27.1164 3.72039 27.1164H7.97961L8.92463 23.5225H5.04918C5.04918 23.5225 4.36593 23.4887 4.62548 22.4464L5.20668 20.1993Z" fill="white"/>
<path fill-rule="evenodd" clip-rule="evenodd" d="M83.2112 21.9057C83.9907 21.9061 84.6301 22.3052 84.7167 22.8233L85.4879 31.4636C85.4879 32.3194 84.4789 33.0187 83.2123 33.0187C81.9478 33.0187 80.9389 32.3194 80.9389 31.4636L81.71 22.8233C81.7944 22.3052 82.4339 21.9061 83.2112 21.9057ZM99.2863 25.9119C99.1618 25.9119 99.0396 25.8744 98.9596 25.8281L98.9063 26.0288C98.9818 26.0729 99.1285 26.1148 99.2729 26.1148C99.6196 26.1148 99.784 25.9273 99.784 25.7134C99.784 25.517 99.6685 25.4001 99.4351 25.3141C99.2551 25.2435 99.1751 25.1972 99.1751 25.0935C99.1751 25.0141 99.244 24.9303 99.3996 24.9303C99.5263 24.9303 99.624 24.97 99.6685 24.9943L99.7307 24.7979C99.6618 24.7626 99.5507 24.7318 99.404 24.7318C99.1129 24.7318 98.9263 24.8994 98.9263 25.1178C98.9263 25.3097 99.0707 25.4266 99.2929 25.506C99.4663 25.5678 99.5329 25.6273 99.5329 25.7288C99.5329 25.8413 99.444 25.9119 99.2863 25.9119ZM101.15 25.5345L101.15 25.5462L101.177 26.0933H101.415L101.337 24.7543H101.017L100.83 25.2903C100.779 25.4469 100.732 25.6124 100.697 25.758H100.69C100.657 25.608 100.615 25.4514 100.566 25.2903L100.388 24.7543H100.064L99.9724 26.0933H100.206L100.235 25.555L100.241 25.4349L100.241 25.4347C100.248 25.2826 100.256 25.1205 100.261 24.9815C100.299 25.1514 100.348 25.3322 100.399 25.5043L100.579 26.0778H100.768L100.968 25.4977C101.026 25.33 101.084 25.147 101.126 24.9815H101.132C101.13 25.1605 101.141 25.3647 101.15 25.5345ZM78.5049 19.206C78.896 19.8744 78.8671 20.6266 78.4538 20.9641L71.3004 25.9404C70.5581 26.3684 69.4426 25.85 68.8092 24.7647C68.1759 23.675 68.287 22.4596 69.0292 22.0295L76.9493 18.3744C77.4449 18.1891 78.1205 18.5377 78.5094 19.2082L78.5049 19.206ZM89.474 18.3759C88.9785 18.1884 88.3074 18.5369 87.9162 19.2075L87.9207 19.2053C87.5318 19.8737 87.5607 20.6259 87.9718 20.9633L95.1252 25.9419C95.8652 26.3654 96.983 25.8493 97.6186 24.7662C98.2475 23.6743 98.143 22.4611 97.3964 22.031L89.474 18.3759ZM89.474 14.6454C88.9785 14.8285 88.3074 14.4778 87.9162 13.8094L87.9207 13.8138C87.5318 13.1455 87.5607 12.3911 87.9718 12.058L95.1252 7.07723C95.8652 6.6493 96.983 7.16546 97.6186 8.25514C98.2475 9.34041 98.143 10.558 97.3964 10.9838L89.474 14.6454ZM78.5049 13.8138C78.896 13.1433 78.8671 12.3911 78.4538 12.058L71.3004 7.07943C70.5581 6.6493 69.4426 7.16546 68.8092 8.25294C68.1759 9.34262 68.287 10.558 69.0292 10.9838L76.9493 14.6454C77.4449 14.8285 78.1205 14.4778 78.5071 13.8094L78.5049 13.8138ZM84.7167 10.1932C84.6301 10.7137 83.9901 11.1152 83.21 11.1152H83.2123C82.4345 11.1152 81.7945 10.7137 81.71 10.1932L80.9389 1.55512C80.9389 0.701462 81.9478 3.8147e-06 83.2123 3.8147e-06C84.4789 3.8147e-06 85.4879 0.701462 85.4879 1.55512L84.7167 10.1932Z" fill="#FDBB30"/>
<path d="M2.76 37.7342C1.5 37.7342 0.85 37.2042 0.56 36.9542C0.46 36.8742 0.42 36.8142 0.51 36.6542L0.87 36.0342C0.95 35.8942 1.12 35.8942 1.21 35.9642C1.62 36.2742 2.07 36.5842 2.72 36.5842C3.24 36.5842 3.63 36.2442 3.63 35.8142C3.63 35.3042 3.2 34.9542 2.36 34.6142C1.42 34.2342 0.48 33.6342 0.48 32.4542C0.48 31.5642 1.14 30.5342 2.73 30.5342C3.75 30.5342 4.53 31.0542 4.73 31.2042C4.83 31.2642 4.86 31.4342 4.79 31.5342L4.41 32.1042C4.33 32.2242 4.18 32.3042 4.06 32.2242C3.63 31.9542 3.22 31.6742 2.67 31.6742C2.1 31.6742 1.79 31.9942 1.79 32.3742C1.79 32.8442 2.16 33.1642 2.97 33.4942C3.94 33.8842 5.06 34.4642 5.06 35.7542C5.06 36.7842 4.17 37.7342 2.76 37.7342ZM5.94156 35.6842V33.2342C5.94156 33.1042 6.04156 33.0142 6.16156 33.0142H6.97156C7.09156 33.0142 7.19156 33.1042 7.19156 33.2342V35.6842C7.19156 36.2942 7.40156 36.6042 7.97156 36.6042C8.48156 36.6042 8.72156 36.1442 8.79156 35.7442V33.2342C8.79156 33.0542 8.85156 33.0142 9.04156 33.0142H9.82156C9.94156 33.0142 10.0416 33.1042 10.0416 33.2342V37.4642C10.0416 37.5742 9.96156 37.6742 9.80156 37.6742C9.38156 37.6742 9.15156 37.4342 9.08156 37.1042C8.83156 37.3542 8.36156 37.7442 7.68156 37.7442C6.25156 37.7442 5.94156 36.8542 5.94156 35.6842ZM15.9736 35.3342C15.9736 36.6842 15.0636 37.7442 13.6836 37.7442C13.2236 37.7442 12.7836 37.6342 12.5736 37.5542V39.7942C12.5736 39.9042 12.4636 40.0142 12.3536 40.0142H11.5436C11.4236 40.0142 11.3236 39.9042 11.3236 39.7942V33.1842C11.3236 33.0742 11.4036 32.9742 11.5636 32.9742C11.9836 32.9742 12.2136 33.2242 12.2836 33.5642C12.5536 33.2742 13.0436 32.9142 13.7636 32.9142C15.0236 32.9142 15.9736 33.9342 15.9736 35.3342ZM12.5736 34.6942V36.3442C12.5736 36.3442 12.9536 36.6042 13.5336 36.6042C14.2936 36.6042 14.6836 35.9842 14.6836 35.3342C14.6836 34.6842 14.3136 34.0542 13.5936 34.0542C12.9936 34.0542 12.6736 34.4342 12.5736 34.6942ZM16.7077 35.3242C16.7077 34.0242 17.6677 32.9142 19.0377 32.9142C20.2377 32.9142 21.1577 33.8042 21.1577 35.0542C21.1577 35.1242 21.1477 35.2842 21.1377 35.3542C21.1277 35.4742 21.0177 35.5642 20.9177 35.5642H17.9577C17.9677 36.1342 18.4377 36.6342 19.1077 36.6342C19.5677 36.6342 19.8877 36.4642 20.0977 36.2942C20.2077 36.2042 20.3277 36.1942 20.3977 36.2942L20.7877 36.8142C20.8677 36.9042 20.8777 37.0142 20.7677 37.1142C20.3677 37.4542 19.7977 37.7442 19.0477 37.7442C17.6677 37.7442 16.7077 36.6442 16.7077 35.3242ZM18.0277 34.7442H19.8977C19.8777 34.2942 19.5177 33.9442 19.0077 33.9442C18.4477 33.9442 18.0877 34.2842 18.0277 34.7442ZM22.0951 37.4142V33.1842C22.0951 33.0742 22.1751 32.9742 22.3351 32.9742C22.7651 32.9742 23.0051 33.2542 23.0651 33.6042C23.2351 33.3742 23.6551 32.9142 24.3551 32.9142C24.9051 32.9142 25.3551 33.0642 25.2251 33.3642L24.9251 34.0442C24.8751 34.1542 24.7651 34.1942 24.6551 34.1442C24.5451 34.0942 24.4351 34.0542 24.2251 34.0542C23.7251 34.0542 23.4251 34.3742 23.3451 34.5342V37.4142C23.3451 37.5842 23.2351 37.6342 23.0851 37.6342H22.3151C22.2051 37.6342 22.0951 37.5342 22.0951 37.4142ZM25.9623 37.4142V33.1842C25.9623 33.0742 26.0423 32.9742 26.2023 32.9742C26.6123 32.9742 26.8523 33.2242 26.9223 33.5542C27.1223 33.3242 27.5323 32.9142 28.3123 32.9142C28.9823 32.9142 29.3123 33.1542 29.6923 33.6142C29.8923 33.4042 30.3523 32.9142 31.1823 32.9142C32.6623 32.9142 33.0123 33.8542 33.0123 35.0542V37.4142C33.0123 37.5342 32.9123 37.6342 32.7823 37.6342H31.9823C31.8623 37.6342 31.7623 37.5342 31.7623 37.4142V35.0242C31.7623 34.4242 31.5423 34.0542 30.9623 34.0542C30.2923 34.0542 30.1023 34.5342 30.1023 34.5342C30.1023 34.5342 30.1223 34.7642 30.1223 34.9742V37.4142C30.1223 37.5342 30.0123 37.6342 29.9023 37.6342H29.0823C28.9523 37.6342 28.8623 37.5342 28.8623 37.4142V35.0242C28.8623 34.4242 28.6923 34.0542 28.1023 34.0542C27.5323 34.0542 27.3223 34.4542 27.2123 34.7742V37.4142C27.2123 37.5342 27.1023 37.6342 26.9923 37.6342H26.1823C26.0723 37.6342 25.9623 37.5342 25.9623 37.4142ZM33.9635 35.3242C33.9635 34.0242 34.9235 32.9142 36.2935 32.9142C37.4935 32.9142 38.4135 33.8042 38.4135 35.0542C38.4135 35.1242 38.4035 35.2842 38.3935 35.3542C38.3835 35.4742 38.2735 35.5642 38.1735 35.5642H35.2135C35.2235 36.1342 35.6935 36.6342 36.3635 36.6342C36.8235 36.6342 37.1435 36.4642 37.3535 36.2942C37.4635 36.2042 37.5835 36.1942 37.6535 36.2942L38.0435 36.8142C38.1235 36.9042 38.1335 37.0142 38.0235 37.1142C37.6235 37.4542 37.0535 37.7442 36.3035 37.7442C34.9235 37.7442 33.9635 36.6442 33.9635 35.3242ZM35.2835 34.7442H37.1535C37.1335 34.2942 36.7735 33.9442 36.2635 33.9442C35.7035 33.9442 35.3435 34.2842 35.2835 34.7442ZM39.3509 37.4142V33.1842C39.3509 33.0742 39.4309 32.9742 39.5909 32.9742C40.0209 32.9742 40.2609 33.2542 40.3209 33.6042C40.4909 33.3742 40.9109 32.9142 41.6109 32.9142C42.1609 32.9142 42.6109 33.0642 42.4809 33.3642L42.1809 34.0442C42.1309 34.1542 42.0209 34.1942 41.9109 34.1442C41.8009 34.0942 41.6909 34.0542 41.4809 34.0542C40.9809 34.0542 40.6809 34.3742 40.6009 34.5342V37.4142C40.6009 37.5842 40.4909 37.6342 40.3409 37.6342H39.5709C39.4609 37.6342 39.3509 37.5342 39.3509 37.4142ZM42.8209 35.3242C42.8209 33.9642 43.9009 32.9142 45.2709 32.9142C45.9909 32.9142 46.5509 33.2242 46.9909 33.6942C47.0909 33.7942 47.0409 33.9242 46.9409 34.0242L46.5209 34.4842C46.4209 34.5942 46.3109 34.5442 46.2209 34.4542C46.0009 34.2442 45.7309 34.0542 45.3009 34.0542C44.5809 34.0542 44.0809 34.6142 44.0809 35.3242C44.0809 36.0442 44.5709 36.6042 45.2909 36.6042C45.8009 36.6042 46.0709 36.3242 46.2709 36.0942C46.3409 36.0142 46.4809 35.9942 46.5609 36.0642L47.0109 36.4442C47.1209 36.5442 47.1709 36.6542 47.0909 36.7742C46.7009 37.3842 46.0809 37.7442 45.2609 37.7442C43.9109 37.7442 42.8209 36.7142 42.8209 35.3242ZM47.6638 36.1642C47.6638 35.3442 48.3338 34.7142 49.5038 34.7142C49.9738 34.7142 50.3938 34.8442 50.3938 34.8442C50.4138 34.2542 50.0138 33.9742 49.5238 33.9742C49.1138 33.9742 48.7238 34.0642 48.4538 34.1442C48.3038 34.1942 48.2138 34.0842 48.1938 33.9442L48.0938 33.4242C48.0538 33.2542 48.1438 33.1742 48.2438 33.1442C48.3438 33.1042 48.9638 32.9142 49.5938 32.9142C50.9338 32.9142 51.5638 33.6642 51.5638 34.9242V37.4642C51.5638 37.5742 51.4838 37.6742 51.3238 37.6742C50.9538 37.6742 50.7238 37.4742 50.6338 37.2042C50.3538 37.4542 49.9038 37.7442 49.2238 37.7442C48.3038 37.7442 47.6638 37.1542 47.6638 36.1642ZM48.8638 36.1642C48.8638 36.5542 49.1038 36.8142 49.5338 36.8142C49.9438 36.8142 50.3038 36.4942 50.3638 36.3242V35.6442C50.3638 35.6442 50.0538 35.5042 49.6838 35.5042C49.1538 35.5042 48.8638 35.7542 48.8638 36.1642ZM52.528 35.3242C52.528 33.9742 53.438 32.9142 54.818 32.9142C55.278 32.9142 55.718 33.0242 55.928 33.1042V30.8542C55.928 30.7442 56.038 30.6342 56.148 30.6342H56.958C57.078 30.6342 57.178 30.7442 57.178 30.8542V37.4642C57.178 37.5742 57.098 37.6742 56.938 37.6742C56.518 37.6742 56.278 37.4242 56.218 37.0942C55.948 37.3842 55.468 37.7442 54.738 37.7442C53.478 37.7442 52.528 36.7242 52.528 35.3242ZM55.928 35.9642V34.3142C55.928 34.3142 55.548 34.0542 54.968 34.0542C54.208 34.0542 53.818 34.6742 53.818 35.3242C53.818 35.9742 54.188 36.6042 54.908 36.6042C55.508 36.6042 55.828 36.2242 55.928 35.9642ZM58.1823 35.3142C58.1823 34.0142 59.2423 32.9142 60.5423 32.9142C61.8523 32.9142 62.9123 34.0142 62.9123 35.3142C62.9123 36.6342 61.8523 37.7442 60.5423 37.7442C59.2423 37.7442 58.1823 36.6342 58.1823 35.3142ZM59.3423 35.3142C59.3423 36.0242 59.8723 36.6042 60.5423 36.6042C61.2123 36.6042 61.7523 36.0242 61.7523 35.3142C61.7523 34.6142 61.2123 34.0542 60.5423 34.0542C59.8723 34.0542 59.3423 34.6142 59.3423 35.3142Z" fill="white"/>
</svg>
