<svg width="22" height="22" viewBox="0 0 22 22" fill="none" xmlns="http://www.w3.org/2000/svg">
<path d="M13.325 12.44C13.475 12.26 13.73 12.14 13.94 12.23V12.215C13.94 12.215 15.785 12.755 16.43 13.37C16.595 13.535 16.355 14.315 16.355 14.315C16.325 14.54 16.1 14.9 15.965 15.065C15.62 15.485 14.75 16.22 12.92 15.8C9.845 15.26 7.37 12.53 6.2 10.265C5.345 8.62996 5.915 7.35496 6.41 6.72496C6.605 6.46996 6.86 6.19996 7.175 6.15496C7.175 6.15496 8.12 5.98996 8.285 6.16996C8.69 6.58996 9.35 8.41996 9.35 8.41996C9.515 8.70496 9.47 9.06496 9.23 9.28996C9.23 9.28996 8.51 9.94996 8.465 10.25C8.795 10.925 9.725 12.38 12.155 13.535C12.275 13.595 12.425 13.55 12.5 13.445L13.325 12.44Z" fill="white"/>
<path fill-rule="evenodd" clip-rule="evenodd" d="M0.5 10.955C0.5 5.18 5.195 0.5 11 0.5C16.805 0.5 21.5 5.18 21.5 10.955C21.5 16.73 16.805 21.41 11 21.41C9.155 21.41 7.43 20.945 5.93 20.12L0.5 21.5L1.925 16.22C1.025 14.675 0.5 12.875 0.5 10.955ZM6.665 18.8C7.985 19.52 9.485 19.91 11 19.91C15.965 19.91 20 15.89 20 10.955C20 6.02 15.965 2 11 2C6.035 2 2 6.02 2 10.97C2 12.56 2.42 14.105 3.215 15.47L3.53 16.01L3.365 16.61L2.615 19.415L5.57 18.665L6.14 18.515L6.665 18.8Z" fill="white"/>
</svg>
